<svg width="40" height="40" viewBox="0 0 40 40" fill="none" xmlns="http://www.w3.org/2000/svg">
<path fill-rule="evenodd" clip-rule="evenodd" d="M19.9997 0C18.5097 0 17.0606 0.16762 15.6644 0.477628V20.0147C15.6644 22.4089 17.6164 24.3614 20.0111 24.3614C22.4047 24.3614 24.356 22.4089 24.356 20.0159C24.356 17.7161 22.5591 15.8284 20.3001 15.6782V12.199C24.4744 12.3504 27.8334 15.8038 27.8334 20.0159C27.8334 24.3236 24.3194 27.8394 20.0111 27.8394C15.701 27.8394 12.1876 24.3236 12.1876 20.0147V1.58308C11.6938 1.79276 11.2113 2.02526 10.7385 2.27519V20.0147C10.7391 25.1208 14.905 29.2849 20.0111 29.2849C25.1178 29.2849 29.2819 25.1208 29.2819 20.0159C29.2819 15.0059 25.2746 10.9031 20.3001 10.7487V7.27076C27.1888 7.42637 32.7575 13.0918 32.7575 20.0159C32.7575 27.038 27.0313 32.7629 20.0111 32.7629C12.9891 32.7629 7.26115 27.038 7.26115 20.0147V4.58223C2.82732 8.24885 0 13.7935 0 19.9997C0 31.0452 8.95418 40.0018 20.0003 40.0018C31.0482 40.0018 40 31.0452 40 19.9997C40 8.95418 31.0482 0 19.9997 0Z" fill="#D91935"/>
</svg>
