<svg width="40" height="40" viewBox="0 0 40 40" fill="none" xmlns="http://www.w3.org/2000/svg">
<path d="M21.2431 12.5806H19.5413C16.6241 12.5806 15.1654 14.0389 15.1654 16.2263C15.1654 18.6567 16.1379 19.8719 18.3258 21.3302L20.0275 22.5453L15.1654 30.0796H11.2757L15.8948 23.2745C13.2205 21.3302 11.7619 19.6289 11.7619 16.4693C11.7619 12.5806 14.4361 9.90723 19.5413 9.90723H24.6466V30.0796H21.2431V12.5806Z" fill="#3287FF"/>
<path d="M18.8429 1.56738C21.433 1.56739 23.8996 2.09568 26.1407 3.05078C25.5843 3.98946 25.1897 5.03413 24.9913 6.14746C23.1092 5.32252 21.0295 4.86427 18.8429 4.86426C10.3778 4.86426 3.51589 11.7249 3.51572 20.1875C3.51572 28.6503 10.3777 35.5107 18.8429 35.5107C27.3079 35.5107 34.17 28.6503 34.17 20.1875C34.17 19.1273 34.0616 18.0924 33.8565 17.0928C33.9554 17.0959 34.0548 17.1016 34.1544 17.1016H34.1593C35.1963 17.1016 36.1925 16.9281 37.1241 16.6152C37.3489 17.7715 37.4688 18.9656 37.4688 20.1875C37.4688 30.4714 29.1295 38.8085 18.8429 38.8086C8.55614 38.8086 0.216896 30.4714 0.216896 20.1875C0.217064 9.9037 8.55624 1.56738 18.8429 1.56738Z" fill="#3287FF"/>
<path d="M35.7012 1.99805C35.9693 4.24226 37.7497 6.02215 39.9945 6.29015V9.24231C36.1248 8.95547 33.0351 5.86668 32.7483 1.99805H35.7012Z" fill="#8AC1FF"/>
<path d="M32.6979 13.5841C32.4298 11.3398 30.6494 9.55995 28.4046 9.29195V6.33984C32.2743 6.62663 35.3639 9.71548 35.6509 13.5841H32.6979Z" fill="#8AC1FF"/>
<path d="M32.6979 1.99805C32.4298 4.24226 30.6494 6.02215 28.4046 6.29015V9.24231C32.2743 8.95547 35.3639 5.86668 35.6509 1.99805H32.6979Z" fill="#3287FF"/>
<path d="M35.7007 13.5841C35.9687 11.3398 37.7492 9.55995 39.994 9.29195V6.33984C36.1243 6.62663 33.0346 9.71548 32.7477 13.5841H35.7007Z" fill="#3287FF"/>
</svg>
