<svg width="171" height="60" viewBox="0 0 171 60" fill="none" xmlns="http://www.w3.org/2000/svg">
<path d="M3.03613 35.9087C-1.33351 38.6428 -0.741661 40.5112 3.24705 41.7911C1.10316 40.2341 1.16612 38.8608 5.01002 37.6245L6.46762 39.0632V34.2645H0.835563L3.03613 35.9087ZM22.1675 33.6977C20.3457 36.5689 17.844 38.0044 14.6623 38.0044C12.8256 38.0335 11.031 37.4597 9.55911 36.3727V42.6195C11.1915 43.2191 12.921 43.5188 14.6623 43.5039C18.3078 43.5039 21.6596 42.1285 24.7175 39.3777L22.1675 33.6946V33.6977ZM0.445193 27.999C0.405316 28.4536 0.385377 28.9166 0.385377 29.3879C0.384356 30.0239 0.423258 30.6593 0.501859 31.2905H6.1528C6.06486 30.8893 6.00595 30.4824 5.97651 30.073C5.95972 29.8487 5.95132 29.6204 5.95132 29.3879C5.93423 28.2498 6.15594 27.1207 6.60244 26.0717C7.04894 25.0228 7.71053 24.0768 8.5454 23.2937C9.34057 22.4874 10.2924 21.8487 11.3436 21.4157C12.3948 20.9828 13.5236 20.7646 14.6623 20.7744C16.2134 20.7914 17.733 21.2101 19.0697 21.9889C20.4394 22.718 21.5658 23.8246 22.3123 25.1745L24.6199 19.3014C21.6228 16.6026 18.3026 15.2532 14.6591 15.2532C11.1096 15.2274 7.67957 16.5206 5.04793 18.8769C2.4163 21.2332 0.774813 24.4809 0.448342 27.9772L0.445193 27.999ZM26.5749 43.2765H32.1345V29.3847L33.4757 34.2333L33.611 34.7035L44.1385 43.4571L48.6781 40.203L42.0009 34.2863L41.4059 33.7288C44.68 31.7826 46.317 28.9301 46.317 25.0095C46.3262 22.4075 45.2929 19.9078 43.4432 18.0577C41.5934 16.2076 39.078 15.1577 36.4475 15.138C35.1703 15.1229 33.9033 15.3659 32.7243 15.8521C31.5453 16.3383 30.479 17.0574 29.5908 17.9655C28.6163 18.884 27.8454 19.9926 27.3267 21.2213C26.8081 22.4499 26.5532 23.7717 26.578 25.1029L26.5749 43.2765ZM32.1345 25.1278C32.1291 24.5624 32.2376 24.0015 32.4538 23.4781C32.67 22.9546 32.9896 22.479 33.3938 22.0792C33.7821 21.6673 34.2518 21.3388 34.774 21.1142C35.2961 20.8896 35.8593 20.7737 36.4286 20.7737C36.998 20.7737 37.5612 20.8896 38.0833 21.1142C38.6054 21.3388 39.0752 21.6673 39.4635 22.0792C39.8678 22.4789 40.1875 22.9545 40.4037 23.478C40.6199 24.0015 40.7284 24.5624 40.7227 25.1278C40.6924 26.2381 40.2252 27.2929 39.4205 28.0676C38.6159 28.8423 37.5373 29.2758 36.4145 29.2758C35.2916 29.2758 34.2131 28.8423 33.4084 28.0676C32.6038 27.2929 32.1366 26.2381 32.1062 25.1278H32.1345ZM49.8335 34.0278V35.5007C49.8335 38.0916 50.6982 40.1345 52.4276 41.6292C53.6868 42.7274 54.922 43.2765 56.133 43.2765H65.3539V37.7771H57.707C57.4102 37.7675 57.1183 37.6998 56.8482 37.5779C56.578 37.456 56.3349 37.2824 56.133 37.0671C55.9047 36.8697 55.7207 36.6273 55.5928 36.3554C55.4648 36.0835 55.3958 35.7881 55.39 35.4883V30.8982H65.2595V25.3988H55.39V20.9986H65.2595V15.4992H49.8335V34.0247V34.0278ZM86.6669 30.7861V24.2466C86.6669 21.5892 85.7865 19.4094 84.0256 17.7071C82.3277 16.0877 80.2122 15.2781 77.6789 15.2781C76.5606 15.2544 75.4492 15.4577 74.4134 15.8755C73.3775 16.2933 72.4393 16.9166 71.6565 17.7071C69.9271 19.4177 69.0624 21.5975 69.0624 24.2466V43.2672H74.6221V34.4233H81.1073V43.2672H86.6669V30.7861ZM74.6189 24.2466C74.6 23.7653 74.6807 23.2853 74.8561 22.836C75.0316 22.3867 75.2979 21.9776 75.6389 21.6339C75.9226 21.3491 76.2623 21.1248 76.6369 20.9748C77.0116 20.8249 77.4134 20.7524 77.8174 20.7619C78.2457 20.7617 78.6696 20.8468 79.0639 21.0121C79.4582 21.1774 79.8148 21.4196 80.1125 21.7242C80.4454 22.0532 80.7057 22.447 80.8769 22.8806C81.0481 23.3143 81.1266 23.7783 81.1073 24.2434V28.7464H74.6221V24.2528L74.6189 24.2466ZM94.2162 43.2672H99.7758V20.9986H105.528V15.4992H88.9336V20.9986H94.2162V43.2672ZM113.307 15.493H107.731V43.2672H113.291L113.307 15.493ZM154.233 25.3925H144.351V20.9986H154.226C164.643 20.8055 169.913 16.7791 170.49 9.26797V3.76855C167.936 10.881 163.346 15.7078 154.277 15.4992H138.791V35.4821C138.791 38.0792 139.656 40.1261 141.385 41.623C142.644 42.7233 143.879 43.2734 145.09 43.2734H154.324V37.7771H146.664C146.368 37.7677 146.076 37.7 145.806 37.5781C145.535 37.4563 145.292 37.2826 145.09 37.0671C144.862 36.8691 144.678 36.6261 144.55 36.3537C144.422 36.0813 144.353 35.7855 144.347 35.4852V30.8982H154.217L154.233 25.3925ZM137.044 15.493H131.062L126.05 30.6335L121.253 15.4992H115.161L123.453 41.2026C124.009 42.9132 124.874 43.7686 126.047 43.7686C127.22 43.7686 128.101 42.9132 128.689 41.2026L137.044 15.493Z" fill="#20B1C7"/>
</svg>
