<svg width="16" height="16" viewBox="0 0 16 16" fill="none" xmlns="http://www.w3.org/2000/svg">
<path fill-rule="evenodd" clip-rule="evenodd" d="M3.22902 5.22552C3.37207 5.08805 3.5639 5.01293 3.76236 5.01667C3.96082 5.02041 4.14968 5.1027 4.28743 5.24547L7.99186 9.17324L11.6963 5.24547C11.7636 5.17132 11.8452 5.11142 11.9361 5.06933C12.027 5.02724 12.1255 5.00381 12.2257 5.00043C12.3258 4.99705 12.4257 5.01378 12.5192 5.04965C12.6128 5.08551 12.6982 5.13977 12.7704 5.20921C12.8426 5.27866 12.9001 5.36187 12.9395 5.45392C12.9789 5.54597 12.9994 5.64498 12.9998 5.74509C13.0002 5.8452 12.9805 5.94438 12.9418 6.03673C12.9032 6.12909 12.8463 6.21276 12.7747 6.28277L8.53105 10.7711C8.46119 10.8435 8.37744 10.9011 8.2848 10.9404C8.19215 10.9797 8.09252 11 7.99186 11C7.8912 11 7.79157 10.9797 7.69892 10.9404C7.60628 10.9011 7.52253 10.8435 7.45267 10.7711L3.20905 6.28277C3.07143 6.13988 2.99623 5.94826 2.99997 5.75001C3.00372 5.55177 3.0861 5.36312 3.22902 5.22552Z" fill="#052A40"/>
</svg>
