<svg width="6" height="16" viewBox="0 0 6 16" fill="none" xmlns="http://www.w3.org/2000/svg">
<path fill-rule="evenodd" clip-rule="evenodd" d="M5.77448 3.22918C5.91195 3.37223 5.98707 3.56406 5.98333 3.76252C5.97959 3.96098 5.8973 4.14984 5.75453 4.28759L1.82676 7.99202L5.75453 11.6964C5.82868 11.7638 5.88858 11.8453 5.93067 11.9363C5.97276 12.0272 5.99619 12.1257 5.99957 12.2258C6.00295 12.326 5.98622 12.4258 5.95035 12.5194C5.91449 12.613 5.86023 12.6984 5.79079 12.7706C5.72134 12.8428 5.63813 12.9003 5.54608 12.9397C5.45403 12.9791 5.35502 12.9996 5.25491 13C5.1548 13.0004 5.05562 12.9807 4.96327 12.942C4.87091 12.9033 4.78724 12.8465 4.71723 12.7748L0.228922 8.53121C0.156524 8.46135 0.0989388 8.3776 0.0596056 8.28496C0.0202724 8.19231 4.40014e-09 8.09268 0 7.99202C-4.40014e-09 7.89136 0.0202725 7.79173 0.0596056 7.69908C0.0989387 7.60644 0.156524 7.52269 0.228922 7.45283L4.71723 3.20921C4.86012 3.07159 5.05174 2.99639 5.24999 3.00013C5.44823 3.00388 5.63688 3.08626 5.77448 3.22918Z" fill="#052A40"/>
</svg>
