<svg width="6" height="16" viewBox="0 0 6 16" fill="none" xmlns="http://www.w3.org/2000/svg">
<path fill-rule="evenodd" clip-rule="evenodd" d="M0.22552 3.22918C0.0880476 3.37223 0.0129278 3.56406 0.0166682 3.76252C0.0204087 3.96098 0.102703 4.14984 0.245468 4.28759L4.17324 7.99202L0.245467 11.6964C0.171316 11.7638 0.11142 11.8453 0.0693285 11.9363C0.0272373 12.0272 0.00380734 12.1257 0.000426663 12.2258C-0.00295401 12.326 0.0137832 12.4258 0.0496473 12.5194C0.0855114 12.613 0.139772 12.6984 0.209215 12.7706C0.278657 12.8428 0.361868 12.9003 0.453917 12.9397C0.545966 12.9791 0.64498 12.9996 0.745092 13C0.845204 13.0004 0.944377 12.9807 1.03673 12.942C1.12909 12.9033 1.21276 12.8465 1.28277 12.7748L5.77108 8.53121C5.84348 8.46135 5.90106 8.3776 5.94039 8.28496C5.97973 8.19231 6 8.09268 6 7.99202C6 7.89136 5.97973 7.79173 5.94039 7.69908C5.90106 7.60644 5.84348 7.52269 5.77108 7.45283L1.28277 3.20921C1.13988 3.07159 0.948259 2.99639 0.750014 3.00013C0.551769 3.00388 0.363119 3.08626 0.22552 3.22918Z" fill="#062048" fill-opacity="0.35"/>
</svg>
