<svg width="20" height="20" viewBox="0 0 20 20" fill="none" xmlns="http://www.w3.org/2000/svg">
<path d="M10 1C8.21997 1 6.47991 1.52784 4.99987 2.51677C3.51983 3.50571 2.36628 4.91131 1.68509 6.55585C1.0039 8.20038 0.82567 10.01 1.17294 11.7558C1.5202 13.5016 2.37737 15.1053 3.63604 16.364C4.89472 17.6226 6.49836 18.4798 8.24419 18.8271C9.99002 19.1743 11.7996 18.9961 13.4442 18.3149C15.0887 17.6337 16.4943 16.4802 17.4832 15.0001C18.4722 13.5201 19 11.78 19 10C18.9975 7.61382 18.0485 5.3261 16.3612 3.63882C14.6739 1.95154 12.3862 1.00252 10 1ZM13.5306 12.4694C13.6003 12.5391 13.6556 12.6218 13.6933 12.7128C13.731 12.8039 13.7504 12.9015 13.7504 13C13.7504 13.0985 13.731 13.1961 13.6933 13.2872C13.6556 13.3782 13.6003 13.4609 13.5306 13.5306C13.4609 13.6003 13.3782 13.6556 13.2872 13.6933C13.1961 13.731 13.0985 13.7504 13 13.7504C12.9015 13.7504 12.8039 13.731 12.7128 13.6933C12.6218 13.6556 12.5391 13.6003 12.4694 13.5306L10 11.0603L7.53063 13.5306C7.46094 13.6003 7.37822 13.6556 7.28717 13.6933C7.19613 13.731 7.09855 13.7504 7 13.7504C6.90145 13.7504 6.80387 13.731 6.71283 13.6933C6.62178 13.6556 6.53906 13.6003 6.46938 13.5306C6.39969 13.4609 6.34442 13.3782 6.3067 13.2872C6.26899 13.1961 6.24958 13.0985 6.24958 13C6.24958 12.9015 6.26899 12.8039 6.3067 12.7128C6.34442 12.6218 6.39969 12.5391 6.46938 12.4694L8.93969 10L6.46938 7.53062C6.32864 7.38989 6.24958 7.19902 6.24958 7C6.24958 6.80097 6.32864 6.6101 6.46938 6.46937C6.61011 6.32864 6.80098 6.24958 7 6.24958C7.19902 6.24958 7.3899 6.32864 7.53063 6.46937L10 8.93968L12.4694 6.46937C12.5391 6.39969 12.6218 6.34441 12.7128 6.3067C12.8039 6.26899 12.9015 6.24958 13 6.24958C13.0985 6.24958 13.1961 6.26899 13.2872 6.3067C13.3782 6.34441 13.4609 6.39969 13.5306 6.46937C13.6003 6.53905 13.6556 6.62178 13.6933 6.71282C13.731 6.80387 13.7504 6.90145 13.7504 7C13.7504 7.09854 13.731 7.19612 13.6933 7.28717C13.6556 7.37821 13.6003 7.46094 13.5306 7.53062L11.0603 10L13.5306 12.4694Z" fill="#5F8296"/>
</svg>
