<svg width="32" height="32" viewBox="0 0 32 32" fill="none" xmlns="http://www.w3.org/2000/svg">
<path d="M15.9486 28.9063H16.0515C21.1775 28.9063 24.1528 28.3902 26.2604 26.3441C28.4094 24.1737 28.9056 21.1782 28.9056 16.0722V15.9278C28.9056 10.8234 28.4094 7.84797 26.2604 5.65595C24.1544 3.60988 21.1575 3.09375 16.053 3.09375H15.9501C10.8242 3.09375 7.84722 3.60988 5.7397 5.65595C3.5907 7.82646 3.09454 10.8234 3.09454 15.9278V16.0722C3.09454 21.1767 3.5907 24.1522 5.7397 26.3441C7.82726 28.3902 10.8242 28.9063 15.9486 28.9063Z" fill="#202022"/>
<path d="M25.8329 15.8057C25.8329 15.7074 25.753 15.626 25.6546 15.6214C22.1267 15.4877 19.9796 15.0377 18.4775 13.5356C16.9723 12.0305 16.5238 9.88174 16.3902 6.34613C16.3871 6.24783 16.3057 6.16797 16.2058 6.16797H15.7942C15.6959 6.16797 15.6145 6.24783 15.6099 6.34613C15.4763 9.88021 15.0278 12.0305 13.5227 13.5356C12.019 15.0393 9.87337 15.4877 6.34544 15.6214C6.24714 15.6244 6.16728 15.7058 6.16728 15.8057V16.2173C6.16728 16.3156 6.24714 16.397 6.34544 16.4016C9.87337 16.5352 12.0205 16.9852 13.5227 18.4873C15.0247 19.9895 15.4732 22.1321 15.6084 25.6537C15.6115 25.7521 15.6929 25.832 15.7927 25.832H16.2058C16.3041 25.832 16.3856 25.7521 16.3902 25.6537C16.5253 22.1321 16.9738 19.9895 18.476 18.4873C19.9796 16.9837 22.1251 16.5352 25.6531 16.4016C25.7514 16.3985 25.8313 16.3171 25.8313 16.2173V15.8057H25.8329Z" fill="white"/>
</svg>
