<svg width="32" height="32" viewBox="0 0 32 32" fill="none" xmlns="http://www.w3.org/2000/svg">
<path fill-rule="evenodd" clip-rule="evenodd" d="M16.4207 9.32574C12.961 9.14431 10.2611 11.545 9.66574 15.3025C9.17272 18.4142 10.0469 22.2057 10.7945 22.3965C11.1117 22.4775 11.8748 21.8939 12.4301 21.3702C12.5344 21.2719 12.6923 21.2552 12.8147 21.3301C13.6802 21.8593 14.6601 22.257 15.7405 22.3137C19.2923 22.4999 22.4398 19.7202 22.626 16.1679C22.812 12.6159 19.9726 9.512 16.4207 9.32574ZM10.6271 27.3649C10.4932 27.2699 10.3086 27.2957 10.1964 27.4155C8.69584 29.0159 4.85567 30.1385 4.67977 27.9541C4.67977 26.2427 4.29536 24.8006 3.87214 23.2127C3.3538 21.268 2.77722 19.1048 2.77722 15.9608C2.77722 8.46352 8.92594 2.8252 16.2163 2.8252C23.5066 2.8252 29.2224 8.73881 29.2224 16.0336C29.2224 23.3285 23.3246 29.0963 16.2852 29.0963C13.7878 29.0963 12.5759 28.7447 10.6271 27.3649Z" fill="#1F5E84"/>
<path fill-rule="evenodd" clip-rule="evenodd" d="M16.4207 9.32574C12.961 9.14431 10.2611 11.545 9.66574 15.3025C9.17272 18.4142 10.0469 22.2057 10.7945 22.3965C11.1117 22.4775 11.8748 21.8939 12.4301 21.3702C12.5344 21.2719 12.6923 21.2552 12.8147 21.3301C13.6802 21.8593 14.6601 22.257 15.7405 22.3137C19.2923 22.4999 22.4398 19.7202 22.626 16.1679C22.812 12.6159 19.9726 9.512 16.4207 9.32574ZM10.6271 27.3649C10.4932 27.2699 10.3086 27.2957 10.1964 27.4155C8.69584 29.0159 4.85567 30.1385 4.67977 27.9541C4.67977 26.2427 4.29536 24.8006 3.87214 23.2127C3.3538 21.268 2.77722 19.1048 2.77722 15.9608C2.77722 8.46352 8.92594 2.8252 16.2163 2.8252C23.5066 2.8252 29.2224 8.73881 29.2224 16.0336C29.2224 23.3285 23.3246 29.0963 16.2852 29.0963C13.7878 29.0963 12.5759 28.7447 10.6271 27.3649Z" fill="url(#paint0_linear_19487_2561)"/>
<defs>
<linearGradient id="paint0_linear_19487_2561" x1="3.00012" y1="29" x2="29.0001" y2="3" gradientUnits="userSpaceOnUse">
<stop stop-color="#4BC2FD"/>
<stop offset="0.5" stop-color="#3D4AEC"/>
<stop offset="1" stop-color="#9043E1"/>
</linearGradient>
</defs>
</svg>
