<svg width="33" height="32" viewBox="0 0 33 32" fill="none" xmlns="http://www.w3.org/2000/svg">
<path d="M3.01525 15.5026C3.01525 9.61109 3.01525 6.67294 4.8505 4.83633C6.67041 3 9.62217 3 15.4953 3H16.5353C22.4234 3 25.3598 3 27.1801 4.83633C29 6.6573 29 9.6108 29 15.4874V16.528C29 22.4195 29 25.3577 27.1801 27.179C25.3602 29 22.4084 29 16.5353 29H15.4953C9.60721 29 6.67079 29 4.83525 27.179C3 25.358 3 22.4046 3 16.528L3.01525 15.5026Z" fill="#FF7700"/>
<path d="M19.1444 14.356C18.3487 15.1518 17.2469 15.6415 16.0227 15.6415C14.7986 15.6415 13.6968 15.1518 12.901 14.356C12.1053 13.5603 11.6156 12.4585 11.6156 11.2343C11.6156 10.0102 12.1053 8.90835 12.901 8.11262C13.6968 7.31688 14.7986 6.82715 16.0227 6.82715C17.2469 6.82715 18.3487 7.31683 19.1444 8.11262C19.9402 8.9084 20.4299 10.0102 20.4299 11.2343C20.4299 12.4585 19.9402 13.5603 19.1444 14.356ZM16.0227 9.24495C15.4718 9.24495 14.9669 9.47448 14.6149 9.82644C14.2477 10.1937 14.0334 10.6834 14.0334 11.2343C14.0334 11.7851 14.263 12.2901 14.6149 12.6421C14.9822 13.0093 15.4719 13.2236 16.0227 13.2236C16.5736 13.2236 17.0786 12.994 17.4305 12.6421C17.7978 12.2748 18.0121 11.7851 18.0121 11.2343C18.0121 10.6834 17.7825 10.1784 17.4305 9.82644C17.0786 9.45918 16.5736 9.24495 16.0227 9.24495ZM20.6594 15.6721L21.9449 17.4319C22.0061 17.5238 21.9908 17.6462 21.9143 17.7074C20.8278 18.595 19.5577 19.1918 18.2416 19.4978L20.736 24.3028C20.8125 24.4406 20.7054 24.6089 20.5524 24.6089H17.8897C17.8132 24.6089 17.7367 24.563 17.7061 24.4865L16.0228 20.5231L14.3395 24.4865C14.3089 24.563 14.2324 24.6089 14.1559 24.6089H11.4779C11.3249 24.6089 11.2178 24.4406 11.2943 24.3028L13.8039 19.4978C12.4879 19.1917 11.2177 18.5949 10.1313 17.7074C10.0548 17.6462 10.0395 17.5238 10.1007 17.4319L11.4014 15.6721C11.4779 15.5803 11.6156 15.565 11.7075 15.6415C12.9317 16.6821 14.4313 17.3554 16.0381 17.3554C17.645 17.3554 19.1446 16.6821 20.3688 15.6415C20.4454 15.5497 20.5831 15.565 20.6596 15.6721H20.6594Z" fill="white"/>
</svg>
