<svg width="24" height="24" viewBox="0 0 24 24" fill="none" xmlns="http://www.w3.org/2000/svg">
<path d="M20.6184 16.9379C20.3744 16.6655 19.6242 15.9863 19.087 15.5816C18.5597 15.1671 17.6959 14.6064 17.3594 14.4327C16.8099 14.1469 15.982 14.1789 15.4677 14.5245C15.045 14.8186 14.6535 15.1553 14.2995 15.5292L14.2917 15.5373C14.0983 15.7416 13.8386 15.8706 13.559 15.9012C13.2793 15.9318 12.9979 15.862 12.7649 15.7043C11.8889 15.1069 11.0712 14.4281 10.323 13.6769C9.57171 12.9286 8.89288 12.1109 8.2955 11.2349C8.13781 11.0019 8.06803 10.7205 8.09862 10.4408C8.1292 10.1612 8.25817 9.90147 8.46249 9.70809L8.47058 9.70035C8.84452 9.34628 9.1812 8.95482 9.47534 8.53212C9.82092 8.01778 9.85292 7.18986 9.5671 6.64037C9.39343 6.30428 8.83269 5.44155 8.4182 4.9128C8.0132 4.37562 7.33434 3.62539 7.06188 3.38141C6.61715 2.98063 5.86587 2.87622 5.34169 3.16168C4.90139 3.41174 4.48892 3.7079 4.11123 4.04515L4.07151 4.08031C1.75402 6.07401 3.27979 11.6389 7.82371 16.174C12.3613 20.7186 17.9247 22.2454 19.9184 19.9279L19.9536 19.8882C20.291 19.5106 20.5871 19.0981 20.8371 18.6578C21.1236 18.1339 21.0192 17.3826 20.6184 16.9379Z" fill="#052A40"/>
</svg>
