<svg width="128" height="128" viewBox="0 0 128 128" fill="none" xmlns="http://www.w3.org/2000/svg">
<path d="M64 114C91.6142 114 114 91.6142 114 64C114 36.3858 91.6142 14 64 14C36.3858 14 14 36.3858 14 64C14 91.6142 36.3858 114 64 114Z" fill="#E8EDF2"/>
<path d="M61.3044 93.0227C60.2286 95.1588 57.1961 95.2791 55.9439 93.2414C47.5279 79.5469 38.0018 66.5968 28.4726 53.6564C27.5877 52.4547 27.7209 50.7853 28.785 49.739L30.4201 48.1313C31.4808 47.0883 33.1457 46.9802 34.3324 47.8772L52.8331 61.862C54.0631 62.7918 55.7984 62.6359 56.8485 61.507C74.1827 42.8727 86.184 31.6478 111.011 16.4779C111.407 16.2359 111.869 16.1045 112.333 16.1045C114.659 16.1045 115.767 18.9977 114.068 20.5863C89.9812 43.1045 75.2883 65.2565 61.3044 93.0227Z" fill="#20B1C7"/>
</svg>
