<svg width="32" height="32" viewBox="0 0 32 32" fill="none" xmlns="http://www.w3.org/2000/svg">
<path fill-rule="evenodd" clip-rule="evenodd" d="M29.3333 15.9993C29.3333 23.3631 23.3638 29.3327 16 29.3327C8.63616 29.3327 2.66663 23.3631 2.66663 15.9993C2.66663 8.63555 8.63616 2.66602 16 2.66602C23.3638 2.66602 29.3333 8.63555 29.3333 15.9993ZM16.4778 12.5095C15.1809 13.0489 12.589 14.1653 8.70209 15.8588C8.07091 16.1098 7.74027 16.3553 7.71017 16.5954C7.6593 17.0012 8.16745 17.161 8.8594 17.3786C8.95353 17.4082 9.05105 17.4388 9.15103 17.4713C9.83181 17.6926 10.7476 17.9515 11.2236 17.9618C11.6555 17.9711 12.1375 17.7931 12.6696 17.4277C16.3013 14.9762 18.176 13.7371 18.2937 13.7104C18.3767 13.6916 18.4918 13.6679 18.5697 13.7371C18.6477 13.8064 18.64 13.9377 18.6318 13.9729C18.5814 14.1875 16.5868 16.0419 15.5545 17.0015C15.2328 17.3007 15.0045 17.5129 14.9579 17.5614C14.8533 17.6699 14.7468 17.7726 14.6444 17.8713C14.0119 18.481 13.5377 18.9382 14.6707 19.6849C15.2151 20.0437 15.6508 20.3404 16.0855 20.6364C16.5602 20.9596 17.0336 21.2821 17.6462 21.6836C17.8023 21.7859 17.9513 21.8922 18.0965 21.9957C18.649 22.3895 19.1453 22.7433 19.7584 22.6869C20.1147 22.6541 20.4827 22.3191 20.6696 21.3199C21.1113 18.9586 21.9796 13.8423 22.1802 11.734C22.1978 11.5492 22.1757 11.3128 22.1579 11.2091C22.1402 11.1053 22.1031 10.9574 21.9682 10.848C21.8084 10.7184 21.5618 10.691 21.4515 10.693C20.95 10.7018 20.1806 10.9693 16.4778 12.5095Z" fill="url(#paint0_linear_19487_2563)"/>
<defs>
<linearGradient id="paint0_linear_19487_2563" x1="29.0001" y1="3" x2="3.00012" y2="29" gradientUnits="userSpaceOnUse">
<stop stop-color="#34B0E3"/>
<stop offset="1" stop-color="#1895D4"/>
</linearGradient>
</defs>
</svg>
