<svg width="32" height="32" viewBox="0 0 32 32" fill="none" xmlns="http://www.w3.org/2000/svg">
<path fill-rule="evenodd" clip-rule="evenodd" d="M4.82765 4.82765C3 6.65531 3 9.59685 3 15.48V16.52C3 22.4032 3 25.3447 4.82765 27.1724C6.65531 29 9.59685 29 15.48 29H16.52C22.4032 29 25.3447 29 27.1724 27.1724C29 25.3447 29 22.4032 29 16.52V15.48C29 9.59685 29 6.65531 27.1724 4.82765C25.3447 3 22.4032 3 16.52 3H15.48C9.59685 3 6.65531 3 4.82765 4.82765ZM7.38756 10.9084C7.5284 17.6684 10.9084 21.7309 16.8342 21.7309H17.1701V17.8634C19.3476 18.0801 20.9942 19.6726 21.655 21.7309H24.7317C23.8867 18.6542 21.6658 16.9534 20.2791 16.3034C21.6658 15.5017 23.6158 13.5517 24.0816 10.9084H21.2866C20.6799 13.0534 18.8818 15.0034 17.1701 15.1876V10.9084H14.375V18.4051C12.6417 17.9717 10.4534 15.8701 10.3559 10.9084H7.38756Z" fill="#0077FF"/>
</svg>
