<svg width="32" height="32" viewBox="0 0 32 32" fill="none" xmlns="http://www.w3.org/2000/svg">
<path fill-rule="evenodd" clip-rule="evenodd" d="M25.696 6.60307C24.4525 5.35152 22.973 4.35918 21.3432 3.68354C19.7134 3.0079 17.9657 2.66239 16.2015 2.66704C8.80047 2.66704 2.78251 8.68758 2.77929 16.0879C2.77631 18.4431 3.39431 20.7575 4.57097 22.7977L2.66667 29.7527L9.78191 27.8864C11.7496 28.958 13.9544 29.5195 16.195 29.5197H16.2008C23.5979 29.5197 29.6198 23.4986 29.6223 16.0982C29.6279 14.3346 29.2838 12.5873 28.6098 10.9575C27.9359 9.32772 26.9455 7.84771 25.696 6.60307V6.60307ZM16.2015 27.2531H16.195C14.1971 27.2534 12.2359 26.7163 10.5169 25.6983L10.1095 25.4563L5.88706 26.5639L7.01458 22.445L6.74879 22.0229C5.63323 20.2455 5.0427 18.189 5.04528 16.0905C5.04528 9.93995 10.0522 4.9356 16.206 4.9356C19.1648 4.93731 22.0017 6.11419 24.0929 8.20741C26.1841 10.3006 27.3582 13.1388 27.357 16.0976C27.3544 22.2488 22.3501 27.2531 16.2015 27.2531ZM22.3205 18.8984C21.9852 18.7304 20.3364 17.9189 20.0287 17.8043C19.7211 17.6897 19.4978 17.637 19.2745 17.9723C19.0512 18.3076 18.4082 19.0663 18.2126 19.2871C18.017 19.5078 17.8213 19.5394 17.486 19.3714C17.1507 19.2034 16.0702 18.8494 14.7888 17.7065C13.792 16.8177 13.1188 15.7192 12.9225 15.3832C12.7262 15.0473 12.9019 14.8684 13.0699 14.6991C13.2205 14.5485 13.4052 14.3072 13.5725 14.1115C13.7398 13.9159 13.7965 13.7756 13.9078 13.5523C14.0191 13.329 13.9638 13.1327 13.8801 12.9647C13.7965 12.7967 13.1259 11.146 12.8459 10.4741C12.5737 9.82025 12.2976 9.90906 12.0917 9.89877C11.8986 9.88911 11.6721 9.88654 11.4481 9.88654C11.2781 9.89114 11.1108 9.93085 10.9569 10.0032C10.803 10.0755 10.6656 10.1789 10.5535 10.3068C10.2466 10.6421 9.38032 11.4536 9.38032 13.1044C9.38032 14.7551 10.5819 16.3498 10.7492 16.5738C10.9165 16.7978 13.1143 20.1848 16.4769 21.6374C17.1013 21.9069 17.7396 22.1432 18.3889 22.3453C19.1927 22.6027 19.9238 22.5641 20.5011 22.4779C21.1447 22.382 22.4859 21.667 22.7652 20.8838C23.0445 20.1005 23.0445 19.4287 22.9582 19.2884C22.872 19.1481 22.6558 19.0663 22.3205 18.8984V18.8984Z" fill="#40BE4F"/>
</svg>
